<mxfile host="app.diagrams.net" agent="Mozilla/5.0 (Windows NT 10.0; Win64; x64) AppleWebKit/537.36 (KHTML, like Gecko) Chrome/133.0.0.0 Safari/537.36 Edg/133.0.0.0" version="26.1.0">
  <diagram name="Page-1" id="OC6mS-YzK7jTCKY2tEIS">
    <mxGraphModel dx="1335" dy="757" grid="1" gridSize="10" guides="1" tooltips="1" connect="1" arrows="1" fold="1" page="1" pageScale="1" pageWidth="827" pageHeight="1169" math="1" shadow="0">
      <root>
        <mxCell id="0" />
        <mxCell id="1" parent="0" />
        <mxCell id="CBWMRK7KqR7smfAwm7Uo-54" value="" style="rounded=0;whiteSpace=wrap;html=1;fillColor=default;strokeColor=none;" vertex="1" parent="1">
          <mxGeometry x="150" y="120" width="680" height="600" as="geometry" />
        </mxCell>
        <mxCell id="CBWMRK7KqR7smfAwm7Uo-10" value="Compute \(\text{EU}(\boldsymbol{x}\))&lt;br&gt;\(r_t=r_\text{imm}+\alpha \cdot \text{EU}(\boldsymbol{x})\)" style="rounded=1;whiteSpace=wrap;html=1;fillColor=#f0ccff;strokeColor=#8800aa;fontSize=15;sketch=1;curveFitting=1;jiggle=2;fontFamily=Garamond;opacity=50;flipH=1;" vertex="1" parent="1">
          <mxGeometry x="620" y="530" width="180" height="50" as="geometry" />
        </mxCell>
        <mxCell id="CBWMRK7KqR7smfAwm7Uo-1" value="Multi-Armed Bandit Driven Adaptive Search in BEXEA" style="text;html=1;fontSize=22;fontColor=#000000;fontStyle=1;align=center;verticalAlign=middle;" vertex="1" parent="1">
          <mxGeometry x="280" y="20" width="400" height="40" as="geometry" />
        </mxCell>
        <mxCell id="CBWMRK7KqR7smfAwm7Uo-2" value="Initialization&lt;br&gt;\(Q(a) = 0\) for all strategies&lt;br&gt;Set \(\epsilon\), stagnation count = 0" style="rounded=1;whiteSpace=wrap;html=1;fillColor=#d0e0ff;strokeColor=#0055aa;fontSize=15;sketch=1;curveFitting=1;jiggle=2;gradientColor=none;fillStyle=hachure;fontFamily=Garamond;opacity=50;" vertex="1" parent="1">
          <mxGeometry x="380" y="140" width="200" height="60" as="geometry" />
        </mxCell>
        <mxCell id="CBWMRK7KqR7smfAwm7Uo-3" value="Stagnation count ≥ \(\mathcal{S}\)?" style="shape=rhombus;whiteSpace=wrap;html=1;fillColor=#ffccaa;strokeColor=#aa5500;fontSize=15;sketch=1;curveFitting=1;jiggle=2;fontFamily=Garamond;opacity=50;" vertex="1" parent="1">
          <mxGeometry x="405" y="260" width="150" height="50" as="geometry" />
        </mxCell>
        <mxCell id="CBWMRK7KqR7smfAwm7Uo-4" value="\(\epsilon\)-greedy selection:&lt;br&gt;\(\arg\max{Q(a)}\) or random" style="rounded=1;whiteSpace=wrap;html=1;fillColor=#e0ffcc;strokeColor=#55aa00;fontSize=15;sketch=1;curveFitting=1;jiggle=2;fontFamily=Garamond;opacity=50;" vertex="1" parent="1">
          <mxGeometry x="165" y="260" width="180" height="50" as="geometry" />
        </mxCell>
        <mxCell id="CBWMRK7KqR7smfAwm7Uo-5" value="Increase \(\epsilon\)&amp;nbsp;= min(\(\epsilon\)×1.1, 0.3)&lt;br&gt;Select random strategy" style="rounded=1;whiteSpace=wrap;html=1;fillColor=#ffe0cc;strokeColor=#aa5500;fontSize=15;sketch=1;curveFitting=1;jiggle=2;fontFamily=Garamond;opacity=50;flipH=1;" vertex="1" parent="1">
          <mxGeometry x="620" y="260" width="180" height="50" as="geometry" />
        </mxCell>
        <mxCell id="CBWMRK7KqR7smfAwm7Uo-6" value="Apply Strategy:&lt;br&gt;Generate new solution \(\boldsymbol{x}\)" style="rounded=1;whiteSpace=wrap;html=1;fillColor=#ccf5ff;strokeColor=#0088aa;fontSize=15;sketch=1;curveFitting=1;jiggle=2;fontFamily=Garamond;opacity=50;" vertex="1" parent="1">
          <mxGeometry x="380" y="350" width="200" height="50" as="geometry" />
        </mxCell>
        <mxCell id="CBWMRK7KqR7smfAwm7Uo-7" value="Evaluate fitness \(f(\boldsymbol{x})\)&lt;br&gt;Compute immediate reward" style="rounded=1;whiteSpace=wrap;html=1;fillColor=#d1f7c4;strokeColor=#118a4d;fontSize=15;sketch=1;curveFitting=1;jiggle=2;fontFamily=Garamond;opacity=50;" vertex="1" parent="1">
          <mxGeometry x="380" y="440" width="200" height="50" as="geometry" />
        </mxCell>
        <mxCell id="CBWMRK7KqR7smfAwm7Uo-9" value="Compute \(\mathcal{D}iv\)&lt;br&gt;\(r_t=r_\text{imm}+\alpha \cdot \frac{\mathcal{D}iv}{d} \)" style="rounded=1;whiteSpace=wrap;html=1;fillColor=#fff0cc;strokeColor=#aa8800;fontSize=15;sketch=1;curveFitting=1;jiggle=2;fontFamily=Garamond;opacity=50;" vertex="1" parent="1">
          <mxGeometry x="170" y="530" width="170" height="50" as="geometry" />
        </mxCell>
        <mxCell id="CBWMRK7KqR7smfAwm7Uo-11" value="Update strategy value:&lt;br&gt;\(\text{Q}_{t+1}(a_t)=(1-\beta)\cdot\text{Q}_t(a_t)\)&lt;br&gt;Update stagnation count" style="rounded=1;whiteSpace=wrap;html=1;fillColor=#ffcccc;strokeColor=#aa0055;fontSize=15;shadow=0;sketch=1;curveFitting=1;jiggle=2;fontFamily=Garamond;opacity=50;" vertex="1" parent="1">
          <mxGeometry x="380" y="640" width="200" height="60" as="geometry" />
        </mxCell>
        <mxCell id="CBWMRK7KqR7smfAwm7Uo-12" value="Next Iteration" style="text;html=1;fontSize=15;fontColor=#000000;align=center;verticalAlign=middle;fontFamily=Garamond;" vertex="1" parent="1">
          <mxGeometry x="640" y="655" width="100" height="30" as="geometry" />
        </mxCell>
        <mxCell id="CBWMRK7KqR7smfAwm7Uo-13" style="edgeStyle=orthogonalEdgeStyle;rounded=0;strokeColor=#0055aa;exitX=0.5;exitY=1;entryX=0.5;entryY=0;fontFamily=Garamond;fontSize=15;" edge="1" parent="1" source="CBWMRK7KqR7smfAwm7Uo-2" target="CBWMRK7KqR7smfAwm7Uo-3">
          <mxGeometry relative="1" as="geometry" />
        </mxCell>
        <mxCell id="CBWMRK7KqR7smfAwm7Uo-14" value="Yes" style="edgeStyle=elbowEdgeStyle;rounded=0;strokeColor=#aa5500;html=1;fontFamily=Garamond;fontSize=15;" edge="1" parent="1" source="CBWMRK7KqR7smfAwm7Uo-3" target="CBWMRK7KqR7smfAwm7Uo-5">
          <mxGeometry relative="1" as="geometry" />
        </mxCell>
        <mxCell id="CBWMRK7KqR7smfAwm7Uo-15" value="No" style="edgeStyle=elbowEdgeStyle;rounded=0;strokeColor=#aa5500;html=1;fontFamily=Garamond;fontSize=15;" edge="1" parent="1" source="CBWMRK7KqR7smfAwm7Uo-3" target="CBWMRK7KqR7smfAwm7Uo-4">
          <mxGeometry relative="1" as="geometry" />
        </mxCell>
        <mxCell id="CBWMRK7KqR7smfAwm7Uo-16" style="edgeStyle=orthogonalEdgeStyle;rounded=0;strokeColor=#55aa00;entryX=0;entryY=0.5;entryDx=0;entryDy=0;exitX=0.5;exitY=1;exitDx=0;exitDy=0;fontFamily=Garamond;fontSize=15;" edge="1" parent="1" source="CBWMRK7KqR7smfAwm7Uo-4" target="CBWMRK7KqR7smfAwm7Uo-6">
          <mxGeometry relative="1" as="geometry">
            <Array as="points">
              <mxPoint x="255" y="375" />
            </Array>
          </mxGeometry>
        </mxCell>
        <mxCell id="CBWMRK7KqR7smfAwm7Uo-17" style="edgeStyle=orthogonalEdgeStyle;rounded=0;strokeColor=#aa5500;entryX=1;entryY=0.5;entryDx=0;entryDy=0;exitX=0.5;exitY=1;exitDx=0;exitDy=0;fontFamily=Garamond;fontSize=15;" edge="1" parent="1" source="CBWMRK7KqR7smfAwm7Uo-5" target="CBWMRK7KqR7smfAwm7Uo-6">
          <mxGeometry relative="1" as="geometry">
            <Array as="points">
              <mxPoint x="710" y="375" />
            </Array>
          </mxGeometry>
        </mxCell>
        <mxCell id="CBWMRK7KqR7smfAwm7Uo-18" style="edgeStyle=orthogonalEdgeStyle;rounded=0;strokeColor=#0088aa;exitX=0.5;exitY=1;exitDx=0;exitDy=0;entryX=0.5;entryY=0;entryDx=0;entryDy=0;fontFamily=Garamond;fontSize=15;" edge="1" parent="1" source="CBWMRK7KqR7smfAwm7Uo-6" target="CBWMRK7KqR7smfAwm7Uo-7">
          <mxGeometry relative="1" as="geometry" />
        </mxCell>
        <mxCell id="CBWMRK7KqR7smfAwm7Uo-19" style="edgeStyle=orthogonalEdgeStyle;rounded=0;strokeColor=#118a4d;entryX=0.5;entryY=0;entryDx=0;entryDy=0;exitX=0.5;exitY=1;exitDx=0;exitDy=0;fontFamily=Garamond;fontSize=15;" edge="1" parent="1" source="CBWMRK7KqR7smfAwm7Uo-7" target="CBWMRK7KqR7smfAwm7Uo-51">
          <mxGeometry relative="1" as="geometry">
            <mxPoint x="480" y="515" as="targetPoint" />
          </mxGeometry>
        </mxCell>
        <mxCell id="CBWMRK7KqR7smfAwm7Uo-20" value="EDA" style="edgeStyle=elbowEdgeStyle;rounded=0;strokeColor=#aa5500;html=1;exitX=0;exitY=0.5;exitDx=0;exitDy=0;fontFamily=Garamond;fontSize=15;" edge="1" parent="1" source="CBWMRK7KqR7smfAwm7Uo-51" target="CBWMRK7KqR7smfAwm7Uo-9">
          <mxGeometry relative="1" as="geometry">
            <mxPoint x="430" y="555" as="sourcePoint" />
          </mxGeometry>
        </mxCell>
        <mxCell id="CBWMRK7KqR7smfAwm7Uo-21" value="QPSO" style="edgeStyle=elbowEdgeStyle;rounded=0;strokeColor=#aa5500;html=1;exitX=1;exitY=0.5;exitDx=0;exitDy=0;fontFamily=Garamond;fontSize=15;" edge="1" parent="1" source="CBWMRK7KqR7smfAwm7Uo-51" target="CBWMRK7KqR7smfAwm7Uo-10">
          <mxGeometry relative="1" as="geometry">
            <mxPoint x="530" y="555" as="sourcePoint" />
            <Array as="points" />
          </mxGeometry>
        </mxCell>
        <mxCell id="CBWMRK7KqR7smfAwm7Uo-22" style="edgeStyle=orthogonalEdgeStyle;rounded=0;strokeColor=#aa8800;exitX=0.5;exitY=1;exitDx=0;exitDy=0;entryX=0;entryY=0.5;entryDx=0;entryDy=0;fontFamily=Garamond;fontSize=15;" edge="1" parent="1" source="CBWMRK7KqR7smfAwm7Uo-9" target="CBWMRK7KqR7smfAwm7Uo-11">
          <mxGeometry relative="1" as="geometry">
            <Array as="points">
              <mxPoint x="255" y="670" />
            </Array>
          </mxGeometry>
        </mxCell>
        <mxCell id="CBWMRK7KqR7smfAwm7Uo-23" style="edgeStyle=orthogonalEdgeStyle;rounded=0;strokeColor=#8800aa;exitX=0.5;exitY=1;exitDx=0;exitDy=0;entryX=0.5;entryY=0;entryDx=0;entryDy=0;fontFamily=Garamond;fontSize=15;" edge="1" parent="1" source="CBWMRK7KqR7smfAwm7Uo-10" target="CBWMRK7KqR7smfAwm7Uo-11">
          <mxGeometry relative="1" as="geometry">
            <Array as="points">
              <mxPoint x="710" y="610" />
              <mxPoint x="480" y="610" />
            </Array>
          </mxGeometry>
        </mxCell>
        <mxCell id="CBWMRK7KqR7smfAwm7Uo-24" style="edgeStyle=orthogonalEdgeStyle;rounded=0;strokeColor=#aa0055;exitX=1;exitY=0.5;exitDx=0;exitDy=0;fontFamily=Garamond;fontSize=15;" edge="1" parent="1" source="CBWMRK7KqR7smfAwm7Uo-11" target="CBWMRK7KqR7smfAwm7Uo-12">
          <mxGeometry relative="1" as="geometry" />
        </mxCell>
        <mxCell id="CBWMRK7KqR7smfAwm7Uo-25" style="edgeStyle=elbowEdgeStyle;rounded=0;strokeColor=#aa0055;html=1;fontFamily=Garamond;fontSize=15;" edge="1" parent="1" source="CBWMRK7KqR7smfAwm7Uo-12">
          <mxGeometry relative="1" as="geometry">
            <mxPoint x="480" y="230" as="targetPoint" />
            <Array as="points">
              <mxPoint x="810" y="450" />
            </Array>
          </mxGeometry>
        </mxCell>
        <mxCell id="CBWMRK7KqR7smfAwm7Uo-51" value="Which strategy?" style="shape=rhombus;whiteSpace=wrap;html=1;fillColor=#ffccaa;strokeColor=#aa5500;fontSize=15;sketch=1;curveFitting=1;jiggle=2;fontFamily=Garamond;opacity=50;" vertex="1" parent="1">
          <mxGeometry x="405" y="530" width="150" height="50" as="geometry" />
        </mxCell>
      </root>
    </mxGraphModel>
  </diagram>
</mxfile>
